<svg width="22" height="18" viewBox="0 0 22 18" fill="none" xmlns="http://www.w3.org/2000/svg">
<path d="M0.5 4.125C0.5 2.26104 2.01104 0.75 3.875 0.75H18.125C19.989 0.75 21.5 2.26104 21.5 4.125V13.875C21.5 15.739 19.989 17.25 18.125 17.25H3.875C2.01104 17.25 0.5 15.739 0.5 13.875V4.125ZM3.875 2.25C2.83947 2.25 2 3.08947 2 4.125V13.875C2 14.9105 2.83947 15.75 3.875 15.75H18.125C19.1605 15.75 20 14.9105 20 13.875V4.125C20 3.08947 19.1605 2.25 18.125 2.25H3.875Z" fill="#6B7280"/>
<path fill-rule="evenodd" clip-rule="evenodd" d="M20.75 4.59375H1.25V7.40625H20.75V4.59375ZM3.59375 11.0625V12C3.59375 12.0461 3.59601 12.092 3.60052 12.1378C3.60503 12.1837 3.61178 12.2292 3.62077 12.2744C3.62976 12.3195 3.64093 12.3641 3.6543 12.4082C3.66767 12.4523 3.68317 12.4956 3.70079 12.5381C3.71842 12.5807 3.73809 12.6223 3.7598 12.6629C3.78151 12.7035 3.80516 12.743 3.83075 12.7813C3.85634 12.8196 3.88374 12.8565 3.91295 12.8921C3.94217 12.9277 3.97306 12.9618 4.00563 12.9944C4.0382 13.0269 4.07228 13.0578 4.10788 13.087C4.14349 13.1163 4.18044 13.1437 4.21873 13.1693C4.25702 13.1948 4.29648 13.2185 4.3371 13.2402C4.37772 13.2619 4.4193 13.2816 4.46185 13.2992C4.5044 13.3168 4.54772 13.3323 4.59179 13.3457C4.63586 13.3591 4.68048 13.3702 4.72565 13.3792C4.77082 13.3882 4.81633 13.395 4.86216 13.3995C4.908 13.404 4.95395 13.4062 5 13.4062H7.25C7.29606 13.4062 7.34201 13.404 7.38784 13.3995C7.43367 13.395 7.47918 13.3882 7.52435 13.3792C7.56952 13.3702 7.61414 13.3591 7.65821 13.3457C7.70228 13.3323 7.7456 13.3168 7.78815 13.2992C7.8307 13.2816 7.87228 13.2619 7.9129 13.2402C7.95352 13.2185 7.99298 13.1948 8.03127 13.1693C8.06956 13.1437 8.10651 13.1163 8.14212 13.087C8.17772 13.0578 8.2118 13.0269 8.24437 12.9944C8.27694 12.9618 8.30783 12.9277 8.33705 12.8921C8.36626 12.8565 8.39366 12.8196 8.41925 12.7813C8.44484 12.743 8.46849 12.7035 8.4902 12.6629C8.51191 12.6223 8.53158 12.5807 8.5492 12.5381C8.56683 12.4956 8.58233 12.4523 8.5957 12.4082C8.60907 12.3641 8.62024 12.3195 8.62923 12.2744C8.63822 12.2292 8.64497 12.1837 8.64948 12.1378C8.65399 12.092 8.65625 12.0461 8.65625 12V11.0625C8.65625 11.0164 8.65399 10.9705 8.64948 10.9247C8.64497 10.8788 8.63822 10.8333 8.62923 10.7881C8.62024 10.743 8.60907 10.6984 8.5957 10.6543C8.58233 10.6102 8.56683 10.5669 8.5492 10.5244C8.53158 10.4818 8.51191 10.4402 8.4902 10.3996C8.46849 10.359 8.44484 10.3195 8.41925 10.2812C8.39366 10.2429 8.36626 10.206 8.33705 10.1704C8.30783 10.1348 8.27694 10.1007 8.24437 10.0681C8.2118 10.0356 8.17772 10.0047 8.14212 9.97545C8.10651 9.94624 8.06956 9.91884 8.03127 9.89325C7.99298 9.86766 7.95352 9.84401 7.9129 9.8223C7.87228 9.80059 7.8307 9.78092 7.78815 9.76329C7.7456 9.74567 7.70228 9.73017 7.65821 9.7168C7.61414 9.70343 7.56952 9.69226 7.52435 9.68327C7.47918 9.67428 7.43367 9.66753 7.38784 9.66302C7.34201 9.65851 7.29606 9.65625 7.25 9.65625H5C4.95395 9.65625 4.908 9.65851 4.86216 9.66302C4.81633 9.66753 4.77082 9.67428 4.72565 9.68327C4.68048 9.69226 4.63586 9.70343 4.59179 9.7168C4.54772 9.73017 4.5044 9.74567 4.46185 9.76329C4.4193 9.78092 4.37772 9.80059 4.3371 9.8223C4.29648 9.84401 4.25702 9.86766 4.21873 9.89325C4.18044 9.91884 4.14349 9.94624 4.10788 9.97545C4.07228 10.0047 4.0382 10.0356 4.00563 10.0681C3.97306 10.1007 3.94217 10.1348 3.91295 10.1704C3.88374 10.206 3.85634 10.2429 3.83075 10.2812C3.80516 10.3195 3.78151 10.359 3.7598 10.3996C3.73809 10.4402 3.71842 10.4818 3.70079 10.5244C3.68317 10.5669 3.66767 10.6102 3.6543 10.6543C3.64093 10.6984 3.62976 10.743 3.62077 10.7881C3.61178 10.8333 3.60503 10.8788 3.60052 10.9247C3.59601 10.9705 3.59375 11.0164 3.59375 11.0625Z" fill="#6B7280"/>
</svg>
