<svg width="20" height="22" viewBox="0 0 20 22" fill="none" xmlns="http://www.w3.org/2000/svg">
<path d="M14.873 5.80546C14.8216 6.49776 14.6575 7.16193 14.3807 7.79798C14.1132 8.41244 13.7593 8.95889 13.3188 9.43732C12.8724 9.92233 12.3718 10.2998 11.817 10.5698C11.2276 10.8566 10.622 11 10 11C9.3781 11 8.77234 10.8566 8.18276 10.5699C7.62767 10.3 7.12679 9.92256 6.68013 9.43767C6.23928 8.95907 5.8852 8.41251 5.6179 7.798C5.34106 7.16156 5.17743 6.49705 5.12701 5.80446C5.07365 5.07079 5.15823 4.3755 5.38074 3.71861C5.59829 3.07636 5.93322 2.51127 6.38555 2.02333C6.83569 1.53775 7.36959 1.16348 7.98725 0.900513C8.61441 0.633504 9.28533 0.5 10 0.5C10.7148 0.5 11.3871 0.63629 12.0169 0.908871C12.6327 1.1754 13.1659 1.55341 13.6163 2.0429C14.0672 2.53277 14.4014 3.09764 14.619 3.73751C14.8419 4.39284 14.9266 5.08219 14.873 5.80546ZM13.3771 5.6946C13.4156 5.17441 13.3562 4.68304 13.1989 4.2205C13.0493 3.78048 12.8205 3.3932 12.5126 3.05866C12.2059 2.72539 11.8421 2.46766 11.4211 2.28546C10.9814 2.09515 10.5077 2 10 2C9.48934 2 9.01427 2.09355 8.57483 2.28064C8.15364 2.45996 7.79056 2.71411 7.4856 3.04308C7.17851 3.37435 6.95046 3.75994 6.80145 4.19985C6.64384 4.66514 6.58437 5.16371 6.62305 5.69554C6.6611 6.21815 6.78455 6.71953 6.99341 7.19969C7.19345 7.65958 7.45678 8.06682 7.7834 8.4214C8.10194 8.76721 8.45373 9.03373 8.83876 9.22098C9.22127 9.40699 9.60836 9.5 10 9.5C10.3916 9.5 10.7784 9.407 11.1606 9.221C11.5453 9.03379 11.8969 8.76726 12.2153 8.42139C12.5417 8.0668 12.8051 7.65944 13.0053 7.19932C13.2144 6.71903 13.3383 6.2175 13.3771 5.6946Z" fill="#6B7280"/>
<path d="M10 14C9.03705 14 8.10009 14.1297 7.18911 14.3892C6.26309 14.653 5.42751 15.0332 4.68237 15.5299C3.91015 16.0447 3.2783 16.657 2.7868 17.367C2.26518 18.1205 1.92124 18.9581 1.75498 19.88C1.74361 19.943 1.74756 19.9886 1.76682 20.0168C1.76396 20.0126 1.75841 20.0083 1.75017 20.0039L1.75002 20H18.25L18.2503 20.0038C18.2421 20.0082 18.2366 20.0125 18.2337 20.0167C18.253 19.9886 18.2569 19.943 18.2455 19.88C18.0792 18.9582 17.7352 18.1205 17.2135 17.367C16.7219 16.657 16.09 16.0447 15.3177 15.5299C14.5726 15.0332 13.737 14.653 12.8109 14.3892C11.9 14.1297 10.963 14 10 14ZM10 12.5C11.1026 12.5 12.1765 12.6489 13.2218 12.9466C14.2983 13.2533 15.2743 13.6983 16.1497 14.2818C17.0808 14.9024 17.8464 15.6462 18.4467 16.5132C19.0918 17.4449 19.5168 18.4784 19.7217 19.6137C19.8059 20.0806 19.7225 20.4974 19.4714 20.8641C19.3361 21.0617 19.1648 21.2158 18.9574 21.3267C18.7413 21.4422 18.5055 21.5 18.25 21.5H1.75002C1.49463 21.5 1.25887 21.4422 1.04272 21.3266C0.835425 21.2157 0.664183 21.0615 0.528994 20.864C0.277991 20.4973 0.194593 20.0805 0.278801 19.6138C0.483549 18.4785 0.908448 17.445 1.5535 16.5132C2.15367 15.6462 2.91931 14.9024 3.8504 14.2818C4.72574 13.6983 5.70167 13.2533 6.77819 12.9466C7.82347 12.6489 8.89742 12.5 10 12.5Z" fill="#6B7280"/>
</svg>
