<svg width="14" height="24" viewBox="0 0 14 24" fill="none" xmlns="http://www.w3.org/2000/svg">
<path d="M0.25 3C0.25 1.34315 1.59315 0 3.25 0H10.75C12.4069 0 13.75 1.34315 13.75 3V21C13.75 22.6569 12.4069 24 10.75 24H3.25C1.59315 24 0.25 22.6569 0.25 21V3ZM3.25 1.5C2.42157 1.5 1.75 2.17157 1.75 3V21C1.75 21.8284 2.42157 22.5 3.25 22.5H10.75C11.5784 22.5 12.25 21.8284 12.25 21V3C12.25 2.17157 11.5784 1.5 10.75 1.5H3.25Z" fill="#6B7280"/>
<path fill-rule="evenodd" clip-rule="evenodd" d="M2.5 0.75C2.5 1.16421 2.83579 1.5 3.25 1.5H4.04399C4.10735 1.75689 4.23913 1.98545 4.43934 2.18566C4.73223 2.47855 5.08579 2.625 5.5 2.625H8.5C8.91421 2.625 9.26777 2.47855 9.56066 2.18566C9.76087 1.98545 9.89265 1.7569 9.95601 1.5H10.75C11.1642 1.5 11.5 1.16421 11.5 0.75C11.5 0.33579 11.1642 0 10.75 0H9.625C9.31434 0 9.04917 0.109835 8.8295 0.329505C8.60983 0.549175 8.5 0.81434 8.5 1.125H5.5C5.5 0.814339 5.39016 0.549174 5.17049 0.329503C4.95082 0.109834 4.68566 0 4.375 0H3.25C2.83579 0 2.5 0.33579 2.5 0.75Z" fill="#6B7280"/>
</svg>
